<svg width="781" height="997" viewBox="0 0 781 997" fill="none" xmlns="http://www.w3.org/2000/svg">
<path d="M684 117.5C666.5 137.5 653.601 193.406 658.988 249C687.269 232.295 734.097 193.408 684 117.5Z" fill="#F6F3F1"/>
<g opacity="0.5">
<path d="M681.462 282.316C676.904 287.093 672.413 291.678 668.049 296.072C658.685 253.831 630.378 201.512 562.217 182.842C557.883 196.45 564.075 229.602 623.514 253.353C650.16 264 662.87 280.016 667.669 296.454C673.574 316.686 667.496 337.556 660.664 349.84C664.84 344.104 671.159 337.371 679.174 331.346C676.387 353.772 671.557 374.555 666.333 392.392C659.748 399.77 653.456 407.841 647.662 416.64C611.596 471.402 612.294 497.95 617.464 505.112C609.921 521.48 607.025 532.516 617.942 527.972C627.641 523.935 621.038 510.035 617.942 505.705C617.779 505.525 617.62 505.327 617.464 505.112C625.322 488.061 638.223 465.224 645.804 448.184C649.888 439.005 658.548 418.97 666.333 392.392C701.962 352.466 746.16 332.794 766.54 327.574C731.285 305.162 699.678 315.935 679.174 331.346C681.124 315.658 682.075 299.166 681.462 282.316C740.044 220.913 809.785 127.719 766.54 1C739.637 10.2036 697.906 36.1921 671.35 82.6435C658.153 105.727 648.704 133.863 646.684 167.505C637.504 153.474 626.188 139.935 612.37 127.176C615.465 113.569 619.799 81.9013 612.37 64.0882C603.082 41.8217 584.507 21.4109 569.647 19.5553C554.788 17.6998 562.217 32.5441 562.217 38.1107C562.217 41.5691 556.482 52.9061 555.701 64.1119C547.3 52.3542 532.374 35.4089 497.206 26.9775C450.769 15.8443 445.196 64.0882 450.769 69.6548C456.341 75.2214 454.484 77.0769 456.341 82.6435C458.199 88.2101 463.771 82.6435 465.628 88.2101C467.486 93.7767 471.201 99.3433 478.631 104.91C486.061 110.477 549.215 97.4878 562.217 104.91C562.871 105.283 563.548 105.647 564.245 106C577.405 112.677 597.51 115.67 597.51 108.621C597.51 101.805 580.278 96.5538 565.955 85.6821C565.494 80.2055 564.179 75.8155 562.217 73.3658C560.414 71.1144 558.393 67.8795 555.701 64.1119C556.482 52.9061 562.217 41.5691 562.217 38.1107C562.217 32.5441 554.788 17.6998 569.647 19.5553C584.507 21.4109 603.082 41.8217 612.37 64.0882C619.799 81.9013 615.465 113.569 612.37 127.176C626.188 139.935 637.504 153.474 646.684 167.505C645.939 179.903 646.204 193.048 647.662 206.964C652.494 204.944 657.919 202.104 663.278 198.347C675.227 225.984 680.454 254.633 681.462 282.316Z" fill="#F6F3F1"/>
<path d="M601.224 474.161C595.033 443.854 593.423 372.107 636.516 327.574C690.383 271.908 822.265 164.287 766.54 1C721.342 16.4628 634.288 79.3035 647.662 206.964C674.286 195.831 718.902 159.834 671.35 82.6435M671.809 334.996C673.666 294.793 654.349 208.078 562.217 182.842C557.883 196.45 564.075 229.602 623.514 253.353C682.954 277.103 673.047 327.574 660.664 349.84C675.524 329.43 717.502 296.401 766.54 327.574C742.393 333.759 684.812 360.231 647.662 416.64C610.512 473.048 612.369 499.52 617.942 505.705C621.038 510.035 627.641 523.935 617.942 527.972C595.652 537.249 630.944 481.583 645.804 448.184C660.549 415.042 734.963 240.364 612.37 127.176C615.465 113.569 619.799 81.9013 612.37 64.0882C603.082 41.8217 584.507 21.4109 569.647 19.5553C554.788 17.6998 562.217 32.5441 562.217 38.1107C562.217 43.6773 547.358 69.6548 562.217 82.6435C577.077 95.6322 597.51 101.199 597.51 108.621C597.51 116.043 575.22 112.332 562.217 104.91C549.215 97.4878 486.061 110.477 478.631 104.91C471.201 99.3433 467.486 93.7767 465.628 88.2101C463.771 82.6435 458.199 88.2101 456.341 82.6435C454.484 77.0769 456.341 75.2214 450.769 69.6548C445.196 64.0882 450.769 15.8443 497.206 26.9775C543.643 38.1107 554.788 64.0882 562.217 73.3658C569.647 82.6435 567.79 119.754 545.5 138.31C523.21 156.865 499.063 175.42 482.346 171.709C465.628 167.998 474.916 153.154 473.058 147.587C471.201 142.021 456.341 136.454 456.341 127.176C451.388 120.373 446.311 105.281 465.628 99.3433" stroke="#B69B89"/>
</g>
<g opacity="0.5">
<path d="M60.3195 870.229C69.8514 840.426 81.7177 815.793 94.7541 795.652C94.305 765.191 87.9766 733.56 72.9443 702.316C72.5475 702.164 72.138 701.999 71.7169 701.823C58.5592 696.3 34.0806 678.856 32.4288 648.772C30.2981 609.964 33.8547 604.053 35.2975 598.808C37.3285 591.426 56.6581 601.493 71.8448 620.338C72.6156 612.396 73.5929 603.641 74.8048 593.993C98.9621 628.019 120.342 697.517 71.7169 701.823C72.138 701.999 72.5475 702.164 72.9443 702.316C87.9766 733.56 94.305 765.191 94.7541 795.652C95.9804 878.821 53.375 953.258 24.4386 987.224C43.7816 954.007 10.4837 869.656 24.5399 786.172C27.8736 766.371 26.868 753.048 24.2742 744.449C21.2826 739.989 18.07 735.542 14.6241 731.115C17.6306 732.098 21.7215 735.986 24.2742 744.449C53.6036 788.172 61.7025 833.044 60.3195 870.229Z" fill="#F6F3F1"/>
<path d="M97.6247 898.797C109.037 889.827 133.582 859.016 140.461 807.539C147.339 756.062 184.918 726 202.847 717.403C154.863 721.186 68.6724 776.718 43.9245 942.028C61.3906 906.706 79.9831 815.073 14.6241 731.115C20.6855 733.098 31.1546 746.885 24.5399 786.172C10.4837 869.656 43.7816 954.007 24.4386 987.224C63.9727 940.818 129.022 818.869 72.9443 702.316C60.1494 697.404 34.1334 679.819 32.4288 648.772C30.2981 609.964 33.8547 604.053 35.2975 598.808C39.3972 583.905 113.986 640.11 82.6957 696.077C82.2406 696.891 81.4071 697.488 80.4746 697.491C73.9502 697.512 62.7306 690.116 74.8048 593.993C100.687 630.448 123.381 707.62 60.2089 701.711C58.6098 701.562 56.9716 701.178 55.5081 700.516C36.0638 691.727 18.0596 664.58 26.0652 598.278L30.4098 598.528" stroke="#B69B89"/>
</g>
</svg>
