<svg width="204" height="53" viewBox="0 0 204 53" fill="none" xmlns="http://www.w3.org/2000/svg">
<g clip-path="url(#clip0_13_826)">
<g opacity="0.6">
<path opacity="0.6" d="M21.1928 3.25564C21.1838 4.0845 21.4921 4.88543 22.0546 5.49426L22.2578 5.69742L24.8447 8.2919L26.1066 9.5639L26.1571 9.61438C26.3689 9.85087 26.4783 10.1617 26.4612 10.4788C26.4625 10.6453 26.4309 10.8105 26.3681 10.9648C26.3052 11.1191 26.2125 11.2594 26.0952 11.3776C25.9779 11.4959 25.8383 11.5897 25.6846 11.6538C25.5308 11.7178 25.3659 11.7508 25.1993 11.7508C24.8856 11.7504 24.5814 11.6426 24.3374 11.4454L23.6787 12.1066C24.0928 12.4918 24.6351 12.7095 25.2006 12.7174C25.542 12.7135 25.8783 12.6339 26.1853 12.4844C26.4923 12.335 26.7624 12.1193 26.9761 11.853C27.1704 12.1042 27.4161 12.311 27.6969 12.4595C27.9776 12.608 28.2869 12.6948 28.6039 12.7141C28.9209 12.7333 29.2384 12.6845 29.535 12.5711C29.8317 12.4576 30.1006 12.2821 30.3239 12.0562L29.6652 11.3949C29.5459 11.514 29.4033 11.6071 29.2463 11.6684C29.0892 11.7296 28.9212 11.7577 28.7528 11.7508C28.5863 11.7508 28.4213 11.7178 28.2676 11.6538C28.1138 11.5897 27.9743 11.4959 27.8569 11.3776C27.7396 11.2594 27.6469 11.1191 27.5841 10.9648C27.5212 10.8105 27.4896 10.6453 27.4909 10.4788C27.5002 10.1417 27.6254 9.81811 27.8455 9.56264L29.1074 8.29064L31.7448 5.64064L31.8458 5.53842C32.4319 4.92047 32.7585 4.10107 32.7581 3.24933C32.7593 2.82239 32.6761 2.39943 32.5133 2.00475C32.3505 1.61007 32.1113 1.25145 31.8094 0.949501C31.5076 0.64755 31.1491 0.408219 30.7545 0.24526C30.3598 0.0823002 29.9369 -0.00107544 29.51 -7.63293e-05C29.0344 -0.00498112 28.5639 0.0976904 28.1337 0.30026C27.7034 0.50283 27.3245 0.800056 27.0253 1.16971C26.7087 0.807082 26.3191 0.515422 25.882 0.313831C25.4449 0.112241 24.9702 0.0052692 24.4889 -7.63293e-05C23.6204 -0.00411012 22.7858 0.336321 22.168 0.946602C21.5501 1.55688 21.1994 2.38723 21.1928 3.25564ZM27.2284 3.7604C27.1528 3.80618 27.0635 3.82404 26.9761 3.81088C26.8888 3.81866 26.8012 3.80113 26.7237 3.7604C26.6393 3.71487 26.5674 3.64926 26.5144 3.56937C26.4613 3.48949 26.4288 3.39778 26.4196 3.30233C26.4177 3.2355 26.4305 3.16906 26.4568 3.10762C26.4832 3.04618 26.5226 2.9912 26.5723 2.94647L26.6227 2.896L26.7237 2.79378L26.9761 2.5414L27.2284 2.79378L27.2789 2.84426L27.4316 2.99695C27.4877 3.08989 27.5222 3.19426 27.5326 3.30233C27.5278 3.39947 27.4971 3.49356 27.4436 3.57479C27.3901 3.65602 27.3158 3.72143 27.2284 3.76419V3.7604ZM22.1569 3.25564C22.1557 2.94871 22.2152 2.64458 22.3318 2.3607C22.4485 2.07682 22.6201 1.81878 22.8368 1.6014C23.0535 1.38401 23.311 1.21157 23.5945 1.09396C23.878 0.976353 24.1819 0.915898 24.4889 0.916067C25.118 0.926274 25.7184 1.18163 26.1621 1.62778L26.3148 1.78047L25.9602 2.13633L25.9098 2.1868C25.7782 2.32107 25.6745 2.48009 25.6048 2.65467C25.535 2.82925 25.5006 3.01592 25.5034 3.2039C25.5058 3.41664 25.5581 3.62585 25.6561 3.81466C25.8094 4.13415 26.0575 4.39857 26.3666 4.5718C26.417 4.62228 26.5193 4.62228 26.5697 4.67402C26.7009 4.7158 26.8387 4.73291 26.9761 4.72449C27.1136 4.7363 27.252 4.7191 27.3824 4.67402C27.459 4.66158 27.5299 4.62589 27.5856 4.5718C27.9053 4.41247 28.1573 4.14386 28.296 3.81466C28.3941 3.62585 28.4464 3.41664 28.4487 3.2039C28.4493 3.00423 28.409 2.80654 28.3305 2.62297C28.2519 2.43939 28.1367 2.2738 27.9919 2.13633L27.6285 1.78047L27.8809 1.62778C28.2092 1.30499 28.6259 1.08676 29.0783 1.00067C29.5306 0.914577 29.9984 0.96448 30.4224 1.14407C30.8464 1.32367 31.2076 1.6249 31.4605 2.00971C31.7134 2.39452 31.8466 2.84565 31.8432 3.30611C31.847 3.60759 31.7906 3.90679 31.6776 4.18628C31.5645 4.46576 31.3969 4.71993 31.1845 4.93397L30.9321 5.13714L30.2734 5.79838L29.5163 6.55552L27.2789 8.79919L27.0758 9.00235C27.0253 9.05283 27.0253 9.10457 26.9748 9.10457C26.9243 9.05409 26.9243 9.00235 26.8739 8.95188L26.7212 8.79919L24.4384 6.51009L22.8156 4.88223C22.6034 4.66834 22.4359 4.41437 22.3228 4.13512C22.2097 3.85586 22.1533 3.5569 22.1569 3.25564Z" fill="#FF417A"/>
</g>
<path d="M48.8322 10.528C48.2784 9.97468 47.609 9.55089 46.8719 9.2871C46.1349 9.02331 45.3486 8.92607 44.5695 9.00236H44.4168V8.84967C44.5315 7.75944 44.3047 6.66048 43.7677 5.70476C43.2307 4.74904 42.41 3.98376 41.4192 3.51473C40.4283 3.0457 39.3163 2.89609 38.2367 3.08659C37.1571 3.27709 36.1634 3.79829 35.3929 4.57812C34.9199 5.04402 34.5412 5.59672 34.2774 6.20598C34.0242 6.82231 33.8701 7.47477 33.8206 8.13922V17.9543C33.7828 18.4789 33.5474 18.9696 33.1618 19.3273C32.744 19.7428 32.1788 19.976 31.5895 19.976C31.0003 19.976 30.435 19.7428 30.0172 19.3273C29.6505 18.956 29.4186 18.4727 29.3585 17.9543H28.0385C28.0837 18.8151 28.4428 19.6296 29.048 20.2434C29.4379 20.6274 29.9095 20.9183 30.4276 21.0944C30.9457 21.2706 31.4969 21.3273 32.04 21.2605H32.2028V21.4132C32.1234 21.9575 32.1734 22.5129 32.3488 23.0343C32.5242 23.5557 32.82 24.0284 33.2123 24.414C33.8629 25.06 34.7307 25.4406 35.6465 25.4816V24.1604C35.0926 24.1238 34.5703 23.889 34.1752 23.4991C33.9539 23.2891 33.7771 23.0368 33.655 22.7572C33.533 22.4776 33.4683 22.1763 33.4647 21.8713C33.4666 21.279 33.7035 20.7116 34.1234 20.2939C34.5584 19.8718 35.1401 19.6348 35.7462 19.6326H45.179C45.8705 19.6326 46.5549 19.4929 47.1912 19.2218C47.8274 18.9507 48.4023 18.554 48.8814 18.0553C49.38 17.5635 49.7759 16.9774 50.0458 16.3311C50.3157 15.6849 50.4544 14.9914 50.4537 14.291C50.4127 12.8758 49.8327 11.5297 48.8322 10.528ZM47.9198 17.1404C47.2002 17.8505 46.2421 18.2674 45.232 18.3102H35.0875V8.34112C35.0845 7.81297 35.186 7.28943 35.3861 6.80064C35.5863 6.31185 35.881 5.86745 36.2535 5.493C36.6204 5.11859 37.0584 4.82114 37.5417 4.61808C38.025 4.41502 38.544 4.31043 39.0682 4.31043C39.5924 4.31043 40.1114 4.41502 40.5947 4.61808C41.078 4.82114 41.516 5.11859 41.8829 5.493C42.2663 5.88059 42.5673 6.34181 42.7677 6.84887C42.9681 7.35593 43.0638 7.89832 43.0489 8.44334V8.9481H42.0848C41.7804 8.95193 41.4799 9.01691 41.2011 9.13918C40.9223 9.26144 40.671 9.43849 40.462 9.65981C40.231 9.8973 40.0423 10.1726 39.9042 10.4737C39.7013 11.0148 39.7013 11.611 39.9042 12.1521L40.0569 12.4575C40.1628 12.6635 40.2999 12.8521 40.4632 13.0165C40.61 13.163 40.7807 13.2833 40.968 13.3723H41.0185L41.3226 13.525C41.8444 13.7285 42.4236 13.7285 42.9454 13.525C43.2495 13.418 43.5264 13.2457 43.7568 13.0203C43.9829 12.8033 44.1625 12.5427 44.2846 12.2541C44.4067 11.9656 44.4689 11.6552 44.4673 11.3419V10.3198L44.6199 10.2693H45.1247C45.652 10.2665 46.1747 10.3685 46.6623 10.5693C47.1499 10.7701 47.5928 11.0658 47.9653 11.4391C48.7042 12.2069 49.1133 13.2334 49.1048 14.299C49.0963 15.3646 48.6709 16.3845 47.9198 17.1404ZM43.1019 10.2744V11.4441C43.0544 11.6803 42.9292 11.8938 42.7462 12.0505C42.5632 12.2072 42.333 12.298 42.0923 12.3085C41.9884 12.3167 41.884 12.2994 41.7882 12.2581C41.6354 12.2051 41.4967 12.118 41.3826 12.0035C41.2684 11.8889 41.1819 11.7498 41.1295 11.5968C41.08 11.42 41.0772 11.2332 41.1214 11.055C41.1657 10.8767 41.2554 10.7129 41.3819 10.5797C41.556 10.3998 41.7908 10.2909 42.0406 10.2744H43.1057H43.1019Z" fill="#FF417A"/>
<g opacity="0.6">
<path opacity="0.6" d="M50.2518 20.7519C49.4249 20.7436 48.6263 21.053 48.0208 21.6163L47.8176 21.8194L45.2358 24.4114L43.9739 25.6834L43.9234 25.7339C43.8069 25.839 43.6708 25.9201 43.5229 25.9725C43.375 26.025 43.2182 26.0476 43.0615 26.0393C42.8949 26.0393 42.73 26.0063 42.5762 25.9422C42.4225 25.8782 42.2829 25.7843 42.1656 25.6661C42.0483 25.5478 41.9556 25.4075 41.8927 25.2533C41.8299 25.099 41.7983 24.9338 41.7996 24.7673C41.7946 24.457 41.8936 24.154 42.081 23.9066L41.4223 23.2454C41.0383 23.6615 40.8217 24.2049 40.8141 24.771C40.8177 25.113 40.8969 25.4499 41.0459 25.7577C41.1949 26.0655 41.41 26.3366 41.6759 26.5516C41.4254 26.7473 41.2192 26.9941 41.0713 27.2756C40.9233 27.557 40.8368 27.8667 40.8176 28.1841C40.7984 28.5015 40.8469 28.8194 40.9598 29.1166C41.0728 29.4139 41.2476 29.6837 41.4728 29.9083L42.1315 29.247C42.0125 29.1269 41.9196 28.9836 41.8586 28.8259C41.7976 28.6683 41.7697 28.4998 41.7769 28.3309C41.7756 28.1643 41.8072 27.9991 41.87 27.8449C41.9328 27.6906 42.0256 27.5503 42.1429 27.432C42.2602 27.3138 42.3998 27.2199 42.5535 27.1559C42.7073 27.0918 42.8722 27.0589 43.0388 27.0589C43.3749 27.0686 43.6972 27.1943 43.9511 27.4147L45.2131 28.6867L47.8504 31.3367L47.9514 31.4389C48.566 32.0268 49.3837 32.3549 50.2342 32.3551C50.6614 32.3558 51.0846 32.2719 51.4793 32.1084C51.8741 31.9449 52.2326 31.705 52.5342 31.4024C52.8359 31.0998 53.0747 30.7405 53.237 30.3453C53.3993 29.9501 53.4818 29.5266 53.4798 29.0994C53.4852 28.623 53.3832 28.1516 53.1813 27.7201C52.9794 27.2887 52.6829 26.9082 52.3138 26.6071C52.6746 26.2989 52.9653 25.917 53.1664 25.4871C53.3676 25.0573 53.4744 24.5894 53.4798 24.1148C53.5015 23.6789 53.4338 23.2431 53.281 22.8342C53.1282 22.4253 52.8935 22.052 52.5912 21.7371C52.289 21.4221 51.9256 21.1723 51.5233 21.0029C51.121 20.8335 50.6883 20.7481 50.2518 20.7519ZM49.795 26.7535C49.7492 26.6778 49.7314 26.5885 49.7445 26.5011C49.737 26.4139 49.7545 26.3263 49.795 26.2487C49.8402 26.1642 49.9055 26.0921 49.9852 26.0388C50.0649 25.9856 50.1565 25.9528 50.2518 25.9433C50.3185 25.9415 50.3847 25.9543 50.446 25.9806C50.5072 26.007 50.5619 26.0464 50.6064 26.096L50.6569 26.1465L50.7579 26.2487L51.0102 26.5011L50.7579 26.7535L50.7074 26.8557L50.5547 26.9579C50.4623 27.0145 50.3583 27.0494 50.2506 27.0601C50.1528 27.0605 50.0572 27.0315 49.9762 26.9768C49.8952 26.9221 49.8325 26.8443 49.7963 26.7535H49.795ZM50.2518 21.6668C50.5589 21.6663 50.8631 21.7265 51.1468 21.8439C51.4305 21.9614 51.6882 22.1338 51.9051 22.3513C52.1219 22.5687 52.2936 22.8269 52.4103 23.1109C52.527 23.3949 52.5864 23.6992 52.5851 24.0063C52.5752 24.6368 52.3204 25.2387 51.8746 25.6847L51.722 25.8373L51.3674 25.4815L51.3169 25.431C51.1838 25.3 51.026 25.1966 50.8528 25.1269C50.6795 25.0571 50.4941 25.0224 50.3074 25.0247C50.0954 25.027 49.887 25.0794 49.6991 25.1774C49.3794 25.3309 49.115 25.5795 48.942 25.8891C48.8915 25.9396 48.8915 26.0418 48.841 26.0923C48.7994 26.2235 48.7823 26.3612 48.7906 26.4986C48.779 26.6361 48.7962 26.7744 48.841 26.9049C48.8536 26.9812 48.8887 27.052 48.942 27.1081C49.101 27.4283 49.3697 27.6809 49.6991 27.8198C49.887 27.9178 50.0954 27.9701 50.3074 27.9725C50.5068 27.9731 50.7042 27.9327 50.8874 27.8539C51.0706 27.7751 51.2357 27.6596 51.3724 27.5144L51.727 27.1586L51.9302 27.3617C52.3513 27.7992 52.5873 28.3824 52.5889 28.9896C52.5901 29.2966 52.5305 29.6009 52.4138 29.8848C52.297 30.1688 52.1253 30.4269 51.9085 30.6443C51.6917 30.8617 51.434 31.0341 51.1504 31.1516C50.8667 31.2692 50.5627 31.3295 50.2556 31.3292C49.9547 31.3329 49.656 31.2764 49.3773 31.1628C49.0985 31.0492 48.8454 30.881 48.6328 30.6679L48.4296 30.4648L47.7709 29.8035L47.0138 29.0464L44.7752 26.809L44.572 26.6058C44.5215 26.5554 44.471 26.5554 44.471 26.5036C44.5215 26.4532 44.572 26.4532 44.6237 26.4014L44.7764 26.2487L47.0592 23.9596L48.682 22.3318C48.8841 22.1193 49.1277 21.9507 49.3978 21.8365C49.6679 21.7223 49.9586 21.6649 50.2518 21.668V21.6668Z" fill="#FF417A"/>
</g>
<g opacity="0.6">
<path opacity="0.6" d="M3.74564 32.3489C4.5739 32.3558 5.37312 32.0441 5.97795 31.4782L6.18112 31.275L8.76802 28.6805L10.0299 27.4085L10.0804 27.3581C10.1969 27.2529 10.333 27.1718 10.4809 27.1194C10.6288 27.067 10.7856 27.0443 10.9423 27.0527C11.1088 27.0527 11.2738 27.0856 11.4275 27.1497C11.5813 27.2137 11.7209 27.3076 11.8382 27.4258C11.9555 27.5441 12.0482 27.6844 12.111 27.8387C12.1739 27.9929 12.2055 28.1581 12.2042 28.3247C12.2036 28.6389 12.0964 28.9437 11.9001 29.1891L12.5588 29.8503C12.9428 29.4342 13.1594 28.8908 13.167 28.3247C13.1629 27.9858 13.0846 27.6519 12.9377 27.3465C12.7907 27.041 12.5787 26.7715 12.3165 26.5567C12.5671 26.361 12.7732 26.1142 12.9212 25.8328C13.0691 25.5513 13.1556 25.2416 13.1748 24.9242C13.194 24.6068 13.1455 24.289 13.0326 23.9917C12.9196 23.6945 12.7448 23.4246 12.5197 23.2001L11.8572 23.855C11.9761 23.9751 12.0691 24.1184 12.1301 24.2761C12.1911 24.4337 12.2189 24.6023 12.2118 24.7711C12.2131 24.9377 12.1814 25.1029 12.1186 25.2572C12.0558 25.4114 11.9631 25.5517 11.8457 25.67C11.7284 25.7882 11.5889 25.8821 11.4351 25.9461C11.2813 26.0102 11.1164 26.0432 10.9499 26.0431C10.6138 26.0334 10.2914 25.9077 10.0375 25.6873L8.77559 24.4153L6.13821 21.7653L6.03726 21.6631C5.41962 21.075 4.59848 20.7485 3.74564 20.752C3.31838 20.7513 2.89521 20.8351 2.50047 20.9986C2.10573 21.1621 1.74722 21.4021 1.44557 21.7047C1.14392 22.0073 0.905088 22.3665 0.742813 22.7618C0.580537 23.157 0.498024 23.5804 0.500021 24.0077C0.494619 24.484 0.596642 24.9555 0.798509 25.3869C1.00037 25.8184 1.29689 26.1988 1.66602 26.5C1.15421 26.9368 0.787098 27.5187 0.613251 28.1688C0.439404 28.8188 0.467018 29.5063 0.69244 30.1403C0.917862 30.7743 1.33047 31.3249 1.87566 31.7193C2.42085 32.1137 3.07294 32.3332 3.74564 32.3489ZM4.2504 26.2917C4.29619 26.3674 4.31404 26.4567 4.30088 26.5441C4.30845 26.6313 4.29093 26.7189 4.2504 26.7965C4.20523 26.881 4.13991 26.9531 4.06023 27.0064C3.98055 27.0597 3.88897 27.0925 3.79359 27.1019C3.72695 27.1037 3.66071 27.091 3.59947 27.0646C3.53824 27.0382 3.48348 26.9989 3.439 26.9492L3.38852 26.8987L3.28883 26.8091L3.03645 26.5567L3.28883 26.3044L3.33931 26.2539L3.492 26.1012C3.58438 26.0447 3.68834 26.0097 3.79612 25.999C3.89164 26.0038 3.9842 26.0337 4.06442 26.0858C4.14464 26.1379 4.20967 26.2102 4.25293 26.2955L4.2504 26.2917ZM3.74564 31.3785C3.43888 31.379 3.13504 31.3189 2.85156 31.2016C2.56809 31.0844 2.31056 30.9123 2.09377 30.6953C1.87697 30.4783 1.70518 30.2206 1.58824 29.937C1.47131 29.6534 1.41155 29.3495 1.41238 29.0427C1.42227 28.4122 1.67706 27.8103 2.12283 27.3644L2.27552 27.2117L2.63012 27.5675L2.68059 27.618C2.81366 27.7491 2.9714 27.8525 3.14468 27.9222C3.31796 27.992 3.50334 28.0267 3.69012 28.0243C3.90205 28.022 4.11043 27.9697 4.29835 27.8717C4.61803 27.7181 4.88246 27.4695 5.0555 27.1599C5.10597 27.1095 5.10597 27.0072 5.15645 26.9568C5.19803 26.8256 5.21514 26.6878 5.20693 26.5504C5.21847 26.413 5.20128 26.2746 5.15645 26.1441C5.1439 26.0678 5.10873 25.997 5.0555 25.9409C4.89649 25.6207 4.62782 25.3681 4.29835 25.2292C4.11043 25.1312 3.90205 25.0789 3.69012 25.0765C3.4907 25.076 3.29328 25.1163 3.11009 25.1951C2.92689 25.2739 2.76181 25.3894 2.62507 25.5346L2.27047 25.8905L2.06731 25.6873C1.64616 25.2498 1.41018 24.6667 1.40859 24.0594C1.40743 23.7524 1.46694 23.4482 1.58371 23.1642C1.70047 22.8802 1.8722 22.6221 2.08901 22.4047C2.30582 22.1873 2.56345 22.0149 2.8471 21.8974C3.13075 21.7799 3.43482 21.7195 3.74185 21.7199C4.04281 21.7161 4.34147 21.7726 4.6202 21.8862C4.89892 21.9998 5.15206 22.1681 5.36466 22.3811L5.56783 22.5843L6.22654 23.2455L6.98369 24.0026L9.21474 26.2413L9.4179 26.4444C9.46838 26.4949 9.51885 26.4949 9.51885 26.5466C9.46838 26.5971 9.4179 26.5971 9.36616 26.6489L9.21347 26.8016L6.93573 29.0932L5.31797 30.721C5.11854 30.9374 4.87495 31.1085 4.60368 31.2225C4.33241 31.3366 4.03979 31.3911 3.74564 31.3823V31.3785Z" fill="#FF417A"/>
</g>
<g opacity="0.6">
<path opacity="0.6" d="M32.7556 49.7479C32.7646 48.919 32.4562 48.1181 31.8937 47.5093L31.741 47.3061L29.1541 44.7116L27.8922 43.4396L27.8417 43.3892C27.6299 43.1527 27.5205 42.8418 27.5376 42.5248C27.5362 42.3582 27.5679 42.193 27.6307 42.0388C27.6935 41.8845 27.7863 41.7442 27.9036 41.6259C28.0209 41.5077 28.1605 41.4138 28.3142 41.3498C28.468 41.2857 28.6329 41.2528 28.7995 41.2528C29.1132 41.2532 29.4174 41.361 29.6614 41.5581L30.3201 40.8969C29.906 40.5117 29.3637 40.2941 28.7982 40.2862C28.4568 40.2901 28.1205 40.3696 27.8135 40.5191C27.5065 40.6686 27.2364 40.8842 27.0227 41.1506C26.8284 40.8993 26.5827 40.6925 26.3019 40.544C26.0212 40.3955 25.7119 40.3087 25.3949 40.2895C25.0779 40.2703 24.7604 40.319 24.4638 40.4325C24.1671 40.5459 23.8981 40.7215 23.6749 40.9474L24.3336 41.6086C24.4529 41.4895 24.5955 41.3964 24.7525 41.3352C24.9095 41.2739 25.0776 41.2459 25.246 41.2528C25.4125 41.2528 25.5775 41.2857 25.7312 41.3498C25.885 41.4138 26.0245 41.5077 26.1419 41.6259C26.2592 41.7442 26.3519 41.8845 26.4147 42.0388C26.4775 42.193 26.5092 42.3582 26.5079 42.5248C26.4986 42.8619 26.3734 43.1854 26.1533 43.4409L24.8346 44.7129L22.2022 47.3503L22.1013 47.4525C21.515 48.0726 21.1897 48.8945 21.1927 49.7479C21.1907 50.1752 21.2732 50.5986 21.4355 50.9938C21.5978 51.3891 21.8366 51.7483 22.1383 52.0509C22.4399 52.3535 22.7984 52.5935 23.1932 52.757C23.5879 52.9205 24.0111 53.0043 24.4383 53.0036C24.9139 53.0085 25.3844 52.9059 25.8147 52.7033C26.2449 52.5007 26.6238 52.2035 26.923 51.8338C27.2293 52.1953 27.6097 52.4868 28.0383 52.6886C28.467 52.8904 28.934 52.9978 29.4077 53.0036C29.8426 53.0147 30.2754 52.9388 30.6806 52.7803C31.0857 52.6217 31.4551 52.3838 31.767 52.0805C32.0789 51.7772 32.327 51.4146 32.4968 51.014C32.6665 50.6134 32.7545 50.183 32.7556 49.7479ZM26.7199 49.2432C26.7955 49.1974 26.8848 49.1795 26.9722 49.1927C27.0595 49.1849 27.1471 49.2024 27.2246 49.2432C27.309 49.2887 27.3809 49.3543 27.4339 49.4342C27.487 49.5141 27.5195 49.6058 27.5287 49.7012C27.5306 49.7681 27.5179 49.8345 27.4915 49.8959C27.4651 49.9574 27.4257 50.0123 27.3761 50.0571L27.3256 50.1076L27.2246 50.2098L26.9722 50.4621L26.7199 50.2098L26.6694 50.1593L26.518 50.0003C26.4619 49.9074 26.4273 49.803 26.417 49.6949C26.4688 49.5142 26.575 49.3538 26.7211 49.2356L26.7199 49.2432ZM31.8419 49.7479C31.8431 50.0549 31.7836 50.3592 31.6668 50.6431C31.5501 50.9271 31.3783 51.1852 31.1615 51.4026C30.9447 51.62 30.6871 51.7924 30.4034 51.9099C30.1198 52.0275 29.8157 52.0878 29.5087 52.0875C28.8795 52.0774 28.2791 51.822 27.8354 51.3758L27.6827 51.2231L28.0373 50.8672L28.0878 50.8167C28.2194 50.6825 28.323 50.5235 28.3928 50.3489C28.4625 50.1743 28.497 49.9876 28.4941 49.7996C28.4918 49.5869 28.4395 49.3777 28.3414 49.1889C28.1882 48.8694 27.9401 48.605 27.631 48.4317C27.5805 48.3813 27.4783 48.3813 27.4278 48.3295C27.2966 48.2877 27.1589 48.2706 27.0215 48.2791C26.884 48.2673 26.7456 48.2845 26.6151 48.3295C26.5385 48.342 26.4676 48.3777 26.412 48.4317C26.0922 48.5911 25.8402 48.8597 25.7015 49.1889C25.6035 49.3777 25.5512 49.5869 25.5488 49.7996C25.5483 49.9993 25.5885 50.197 25.667 50.3806C25.7456 50.5642 25.8608 50.7297 26.0056 50.8672L26.3602 51.2231L26.1571 51.4262C25.8283 51.7465 25.4123 51.9624 24.9612 52.047C24.5102 52.1317 24.0441 52.0812 23.6217 51.9019C23.1992 51.7226 22.8391 51.4225 22.5866 51.0393C22.3341 50.6561 22.2004 50.2068 22.2022 49.7479C22.1985 49.4464 22.2548 49.1472 22.3679 48.8678C22.481 48.5883 22.6486 48.3341 22.861 48.1201L23.0641 47.9169L23.7228 47.2556L24.48 46.4985L26.711 44.2599L26.9142 44.0567C26.9647 44.0062 26.9647 43.9545 27.0152 43.9545C27.0656 44.005 27.0656 44.0567 27.1161 44.1072L27.2688 44.2599L29.5516 46.549L31.1744 48.1768C31.3914 48.3759 31.5634 48.6191 31.6787 48.89C31.7941 49.161 31.8502 49.4535 31.8432 49.7479H31.8419Z" fill="#FF417A"/>
</g>
<path d="M24.5898 17.9544C24.5521 18.479 24.3167 18.9696 23.9311 19.3273C23.7263 19.5367 23.4817 19.7031 23.2117 19.8167C22.9417 19.9303 22.6517 19.9888 22.3588 19.9888C22.0659 19.9888 21.7759 19.9303 21.5059 19.8167C21.2359 19.7031 20.9913 19.5367 20.7864 19.3273C20.4198 18.9561 20.1879 18.4727 20.1277 17.9544V8.13802C20.0699 6.79591 19.5085 5.52487 18.5554 4.57819C17.8101 3.83782 16.8624 3.33445 15.8317 3.13141C14.801 2.92837 13.7332 3.03474 12.7628 3.43713C11.7923 3.83952 10.9626 4.51995 10.378 5.3928C9.79337 6.26564 9.47998 7.29191 9.47726 8.34245V8.95321H9.27409C8.53653 8.88321 7.79247 8.96777 7.08942 9.20149C6.38637 9.43522 5.73978 9.81297 5.19094 10.3106C4.64209 10.8083 4.20305 11.4149 3.90184 12.0918C3.60063 12.7687 3.44387 13.501 3.44157 14.2419C3.43603 14.9429 3.57248 15.6379 3.84271 16.2848C4.11293 16.9317 4.51133 17.5173 5.0139 18.0061C6.009 18.9738 7.32909 19.5357 8.71633 19.5822H18.1491C18.7532 19.594 19.3315 19.8297 19.7719 20.2435C20.1865 20.6638 20.4189 21.2305 20.4189 21.8209C20.4189 22.4113 20.1865 22.9779 19.7719 23.3982C19.3767 23.7882 18.8544 24.0229 18.3005 24.0595V25.382C18.7566 25.3731 19.2064 25.2742 19.6241 25.091C20.0419 24.9078 20.4193 24.6439 20.7347 24.3144C21.127 23.9288 21.4229 23.4561 21.5983 22.9347C21.7737 22.4133 21.8237 21.8579 21.7442 21.3136V21.1596H21.8969C22.44 21.2264 22.9912 21.1697 23.5093 20.9936C24.0274 20.8174 24.499 20.5265 24.8889 20.1425C25.4941 19.5287 25.8533 18.7143 25.8984 17.8534H24.5898V17.9544ZM10.8464 10.2744H11.9619C12.087 10.2763 12.2103 10.3045 12.3238 10.3571C12.4373 10.4097 12.5384 10.4856 12.6207 10.5798C12.7472 10.713 12.8369 10.8767 12.8811 11.055C12.9254 11.2333 12.9226 11.42 12.873 11.5969C12.8207 11.7499 12.7341 11.889 12.62 12.0035C12.5058 12.1181 12.3671 12.2052 12.2143 12.2581C12.1186 12.2995 12.0142 12.3168 11.9102 12.3086C11.7774 12.3075 11.6462 12.2799 11.5243 12.2274C11.4023 12.175 11.292 12.0988 11.1998 12.0032C11.0505 11.8473 10.9455 11.6543 10.8956 11.4442V11.1388L10.8464 10.2744ZM18.7081 18.362H8.76681C7.75671 18.3192 6.79862 17.9023 6.07895 17.1922C5.32393 16.4366 4.8998 15.4122 4.8998 14.3441C4.8998 13.2759 5.32393 12.2515 6.07895 11.4959C6.45139 11.1226 6.89428 10.827 7.38189 10.6262C7.86951 10.4253 8.39216 10.3234 8.9195 10.3262H9.57821V11.3433C9.58488 11.9744 9.84016 12.5775 10.2887 13.0216C10.514 13.2534 10.7925 13.4267 11.1001 13.5264C11.6219 13.7298 12.2011 13.7298 12.7229 13.5264L13.027 13.3737L13.0775 13.3232C13.2424 13.2217 13.3964 13.1033 13.5368 12.9699C13.7001 12.8055 13.8372 12.6169 13.9431 12.4108L14.0958 12.1054C14.2987 11.5644 14.2987 10.9682 14.0958 10.4271C13.9768 10.1282 13.8059 9.85268 13.5911 9.61319C13.1424 9.20505 12.5724 8.95507 11.9683 8.90147H10.9587V8.39671C10.9324 7.59828 11.1467 6.81037 11.5739 6.13529C12.001 5.46021 12.6213 4.92914 13.3541 4.61104C14.0869 4.29293 14.8984 4.20249 15.6833 4.35146C16.4681 4.50042 17.1901 4.8819 17.7554 5.44638C18.1278 5.82083 18.4226 6.26523 18.6227 6.75402C18.8228 7.24281 18.9243 7.76634 18.9214 8.2945V17.8534C18.9132 17.9578 18.9306 18.0626 18.9718 18.1588V18.3115L18.7081 18.362Z" fill="#FF417A"/>
<path d="M24.8939 32.8068C24.5134 32.4097 24.0429 32.1099 23.5221 31.9329C23.0014 31.7558 22.4456 31.7068 21.9019 31.7897H21.7492V31.6371C21.8287 31.0927 21.7786 30.5373 21.6032 30.0159C21.4278 29.4946 21.132 29.0219 20.7397 28.6362C20.4219 28.3134 20.043 28.0572 19.625 27.8825C19.2071 27.7079 18.7585 27.6184 18.3055 27.6191V28.9416C18.8594 28.9782 19.3817 29.2129 19.7769 29.6029C20.1915 30.0232 20.4239 30.5898 20.4239 31.1802C20.4239 31.7706 20.1915 32.3373 19.7769 32.7576C19.5681 32.9759 19.3157 33.1476 19.036 33.2615C18.7564 33.3754 18.4558 33.4291 18.154 33.4189H8.76674C8.07518 33.4189 7.39077 33.5587 6.75455 33.8297C6.11833 34.1008 5.54342 34.4975 5.06431 34.9962C4.28822 35.7693 3.77 36.7633 3.58059 37.8422C3.39118 38.9212 3.53984 40.0323 4.00621 41.0234C4.47259 42.0146 5.23389 42.8375 6.1859 43.3793C7.13792 43.9212 8.23414 44.1556 9.3245 44.0504H9.47719V44.2031C9.36079 45.2948 9.58694 46.3957 10.1243 47.3531C10.6616 48.3105 11.4836 49.0769 12.4761 49.5462C13.4686 50.0155 14.5826 50.1644 15.6635 49.9721C16.7444 49.7799 17.7388 49.2561 18.5086 48.4734C19.4613 47.5243 20.021 46.2509 20.0759 44.9072V35.0959C20.1466 34.5807 20.377 34.1006 20.7346 33.723C21.1524 33.3075 21.7177 33.0742 22.307 33.0742C22.8962 33.0742 23.4615 33.3075 23.8793 33.723C24.0859 33.8905 24.2557 34.099 24.3779 34.3352C24.5002 34.5715 24.5723 34.8305 24.5898 35.0959H25.9085C25.8619 34.2344 25.5009 33.4199 24.8939 32.8068ZM18.8077 34.841V44.7596C18.8107 45.2878 18.7092 45.8113 18.5091 46.3001C18.309 46.7889 18.0142 47.2333 17.6417 47.6077C16.884 48.3537 15.8645 48.7735 14.8012 48.7775C13.7398 48.7638 12.7238 48.3454 11.9606 47.6077C11.5772 47.2201 11.2762 46.7589 11.0758 46.2519C10.8754 45.7448 10.7797 45.2024 10.7946 44.6574V44.1526H11.8597C12.1641 44.1488 12.4646 44.0838 12.7433 43.9615C13.0221 43.8393 13.2735 43.6622 13.4825 43.4409C13.7144 43.2147 13.8877 42.9353 13.9872 42.627C14.1894 42.0858 14.1894 41.4898 13.9872 40.9486L13.8345 40.6433C13.7286 40.4372 13.5915 40.2486 13.4282 40.0842C13.2814 39.9378 13.1107 39.8174 12.9235 39.7284V39.6779L12.6193 39.5252C12.0975 39.3218 11.5183 39.3218 10.9965 39.5252C10.686 39.6454 10.408 39.8369 10.1851 40.0842C9.95904 40.3012 9.77946 40.5618 9.65732 40.8504C9.53518 41.1389 9.47304 41.4493 9.47467 41.7626V42.7797L9.32198 42.8301H8.81721C8.0264 42.8333 7.25247 42.6015 6.59357 42.1641C5.93467 41.7268 5.42048 41.1037 5.1162 40.3737C4.81193 39.6438 4.73127 38.8399 4.88446 38.0641C5.03765 37.2883 5.41779 36.5754 5.97667 36.0159C6.69614 35.3042 7.65475 34.8859 8.66578 34.8423H18.809L18.8077 34.841ZM10.7946 41.6061C10.8331 41.3918 10.9397 41.1958 11.0987 41.0471C11.2308 40.9213 11.3933 40.832 11.5702 40.7878C11.7472 40.7435 11.9325 40.7459 12.1083 40.7947C12.2611 40.8477 12.3998 40.9347 12.5139 41.0493C12.628 41.1639 12.7146 41.3029 12.767 41.4559C12.8165 41.6328 12.8193 41.8195 12.7751 41.9978C12.7308 42.1761 12.6411 42.3398 12.5146 42.473C12.3344 42.6442 12.103 42.7514 11.8559 42.7784H10.7908L10.7946 41.6061Z" fill="#FF417A"/>
<path d="M48.8323 34.995C48.3491 34.5017 47.7734 34.1084 47.1381 33.8378C46.5028 33.5671 45.8204 33.4243 45.1299 33.4176H35.6971C35.2551 33.4178 34.8229 33.2866 34.4555 33.0408C34.0881 32.7949 33.802 32.4454 33.6336 32.0367C33.4651 31.628 33.4219 31.1785 33.5093 30.7451C33.5968 30.3118 33.811 29.9142 34.1248 29.6029C34.52 29.2129 35.0422 28.9782 35.5962 28.9416V27.6191C34.686 27.6413 33.8173 28.0043 33.162 28.6362C32.7697 29.0219 32.4738 29.4946 32.2984 30.0159C32.123 30.5373 32.073 31.0927 32.1524 31.637V31.7897H31.9998C31.4546 31.7092 30.898 31.7594 30.3761 31.9362C29.8541 32.1131 29.3816 32.4115 28.9977 32.8068C28.3924 33.4206 28.0332 34.2351 27.9882 35.0959H29.3068C29.3552 34.5742 29.5889 34.0871 29.9656 33.723C30.3834 33.3075 30.9487 33.0742 31.5379 33.0742C32.1271 33.0742 32.6924 33.3075 33.1102 33.723C33.4769 34.0943 33.7088 34.5776 33.7689 35.0959V44.9072C33.8265 46.2498 34.3879 47.5213 35.3413 48.4683C35.8305 48.9676 36.4144 49.3641 37.0588 49.6349C37.7032 49.9056 38.3952 50.0451 39.0942 50.0451C39.7932 50.0451 40.4851 49.9056 41.1295 49.6349C41.7739 49.3641 42.3579 48.9676 42.8471 48.4683C43.3989 47.9115 43.8213 47.24 44.0843 46.5016C44.3473 45.7631 44.4445 44.9758 44.3689 44.1955V44.0428H44.6213C45.7157 44.1591 46.819 43.9303 47.7769 43.3884C48.7347 42.8465 49.4991 42.0187 49.9631 41.0207C50.4271 40.0228 50.5674 38.9048 50.3644 37.8232C50.1614 36.7415 49.6253 35.7505 48.831 34.9887L48.8323 34.995ZM43.1007 42.7771H42.0357C41.9106 42.7753 41.7873 42.7471 41.6738 42.6945C41.5604 42.6419 41.4592 42.566 41.377 42.4718C41.2505 42.3386 41.1607 42.1748 41.1165 41.9965C41.0722 41.8183 41.075 41.6315 41.1246 41.4547C41.177 41.3017 41.2635 41.1626 41.3776 41.048C41.4918 40.9335 41.6305 40.8464 41.7833 40.7934C41.959 40.7446 42.1444 40.7422 42.3213 40.7865C42.4983 40.8307 42.6607 40.9201 42.7928 41.0458C42.9421 41.2018 43.0471 41.3948 43.0969 41.6048L43.1007 42.7771ZM47.9187 41.6074C47.5562 41.9797 47.1225 42.2751 46.6434 42.4761C46.1642 42.6771 45.6495 42.7795 45.1299 42.7771H44.5191V41.76C44.5124 41.1289 44.2572 40.5258 43.8087 40.0817C43.572 39.8505 43.2976 39.6614 42.9973 39.5227C42.4755 39.3192 41.8962 39.3192 41.3744 39.5227L41.0703 39.6754H40.9176C40.756 39.7815 40.6032 39.9005 40.4608 40.0312C40.2975 40.1956 40.1605 40.3842 40.0545 40.5903L39.9018 40.8956C39.6996 41.4368 39.6996 42.0328 39.9018 42.574C40.0215 42.8852 40.2125 43.164 40.4596 43.3879C40.9028 43.8043 41.4758 44.0556 42.0824 44.0996H43.0919V44.6044C43.1118 45.15 43.0185 45.6938 42.8178 46.2016C42.6171 46.7094 42.3134 47.1701 41.9259 47.5547C41.1704 48.2997 40.1539 48.7204 39.0929 48.727C38.0316 48.7133 37.0155 48.2949 36.2524 47.5572C35.8799 47.1828 35.5851 46.7384 35.385 46.2496C35.1849 45.7608 35.0834 45.2373 35.0864 44.7091V34.6858H45.1816C45.9681 34.7189 46.7282 34.9792 47.3698 35.4353C48.0114 35.8914 48.5071 36.5237 48.7969 37.2556C49.0866 37.9875 49.158 38.7878 49.0023 39.5595C48.8467 40.3311 48.4707 41.0411 47.9199 41.6036L47.9187 41.6074Z" fill="#FF417A"/>
</g>
<path d="M76.5273 26.5674C76.5273 29.042 75.854 30.9355 74.5073 32.248C73.1675 33.5537 71.2363 34.2065 68.7139 34.2065H64.561V19.2153H69.1548C71.4858 19.2153 73.2974 19.8613 74.5894 21.1533C75.8813 22.4453 76.5273 24.25 76.5273 26.5674ZM74.6816 26.6289C74.6816 24.6738 74.1895 23.2007 73.2051 22.2095C72.2275 21.2183 70.7715 20.7227 68.8369 20.7227H66.3042V32.6992H68.4268C70.5049 32.6992 72.0669 32.1899 73.1128 31.1714C74.1587 30.146 74.6816 28.6318 74.6816 26.6289Z" fill="#292933"/>
<path d="M85.3404 34.2065V19.2153H87.0835V34.2065H85.3404Z" fill="#292933"/>
<path d="M103.085 20.5586C101.437 20.5586 100.135 21.1089 99.1778 22.2095C98.2276 23.3032 97.7525 24.8037 97.7525 26.7109C97.7525 28.6729 98.2105 30.1904 99.1265 31.2637C100.049 32.3301 101.362 32.8633 103.064 32.8633C104.11 32.8633 105.303 32.6753 106.643 32.2993V33.8271C105.604 34.2168 104.322 34.4116 102.797 34.4116C100.589 34.4116 98.8839 33.7417 97.6807 32.4019C96.4845 31.062 95.8863 29.1582 95.8863 26.6904C95.8863 25.1455 96.1734 23.792 96.7476 22.6299C97.3287 21.4678 98.1627 20.5723 99.2496 19.9434C100.343 19.3145 101.628 19 103.105 19C104.677 19 106.051 19.2871 107.227 19.8613L106.489 21.3584C105.354 20.8252 104.219 20.5586 103.085 20.5586Z" fill="#292933"/>
<path d="M123.731 34.2065H115.374V19.2153H123.731V20.7637H117.117V25.5933H123.331V27.1313H117.117V32.6479H123.731V34.2065Z" fill="#292933"/>
<path d="M144.233 34.2065H142.244L134.051 21.625H133.969C134.078 23.1016 134.133 24.4551 134.133 25.6855V34.2065H132.523V19.2153H134.492L142.664 31.7456H142.746C142.733 31.561 142.702 30.9697 142.654 29.9717C142.606 28.9668 142.589 28.249 142.603 27.8184V19.2153H144.233V34.2065Z" fill="#292933"/>
<path d="M158.429 34.2065H156.686V20.7637H151.939V19.2153H163.177V20.7637H158.429V34.2065Z" fill="#292933"/>
<path d="M172.646 27.9722V34.2065H170.903V19.2153H175.015C176.854 19.2153 178.211 19.5674 179.086 20.2715C179.968 20.9756 180.408 22.0352 180.408 23.4502C180.408 25.4326 179.404 26.7725 177.394 27.4697L181.465 34.2065H179.404L175.774 27.9722H172.646ZM172.646 26.4751H175.035C176.266 26.4751 177.168 26.2324 177.742 25.7471C178.317 25.2549 178.604 24.52 178.604 23.5425C178.604 22.5513 178.31 21.8369 177.722 21.3994C177.141 20.9619 176.204 20.7432 174.912 20.7432H172.646V26.4751Z" fill="#292933"/>
<path d="M198.768 34.2065L196.902 29.4385H190.893L189.047 34.2065H187.283L193.21 19.1538H194.677L200.573 34.2065H198.768ZM196.358 27.8696L194.615 23.2246C194.389 22.6367 194.157 21.9155 193.918 21.061C193.767 21.7173 193.552 22.4385 193.272 23.2246L191.508 27.8696H196.358Z" fill="#292933"/>
<defs>
<clipPath id="clip0_13_826">
<rect width="53" height="53" fill="white" transform="translate(0.5)"/>
</clipPath>
</defs>
</svg>
